<svg xmlns="http://www.w3.org/2000/svg" viewBox="0 0 131.39 86.9">
  <path fill="#FF5F00" d="M48.37,15.14h34.66v56.61H48.37z"/>
  <path fill="#EB001B" d="M51.94,43.45c0-11.52,5.39-21.77,13.75-28.31C58.96,8.92,50.13,5.74,40.95,5.74 C18.78,5.74,0.8,23.72,0.8,45.89c0,22.17,17.98,40.15,40.15,40.15c9.18,0,18.01-3.18,24.74-9.4 C57.33,65.21,51.94,54.97,51.94,43.45z"/>
  <path fill="#F79E1B" d="M130.59,45.89c0,22.17-17.98,40.15-40.15,40.15c-9.18,0-18.01-3.18-24.74-9.4 c8.36-6.54,13.75-16.79,13.75-28.31c0-11.52-5.39-21.77-13.75-28.31c6.73-6.22,15.56-9.4,24.74-9.4 C112.61,5.74,130.59,23.72,130.59,45.89z"/>
</svg>
