<svg xmlns="http://www.w3.org/2000/svg" viewBox="0 0 512 512">
  <rect width="512" height="512" rx="50" fill="#E31E31"/>
  <path fill="#ffffff" d="M256,96c-88.37,0-160,71.63-160,160s71.63,160,160,160s160-71.63,160-160S344.37,96,256,96z M256,376 c-66.27,0-120-53.73-120-120s53.73-120,120-120s120,53.73,120,120S322.27,376,256,376z"/>
  <path fill="#ffffff" d="M256,176c-44.18,0-80,35.82-80,80s35.82,80,80,80s80-35.82,80-80S300.18,176,256,176z M256,296 c-22.09,0-40-17.91-40-40s17.91-40,40-40s40,17.91,40,40S278.09,296,256,296z"/>
</svg>
