<svg xmlns="http://www.w3.org/2000/svg" viewBox="0 0 1000 324.68">
  <path fill="#1434CB" d="M651.19,0,576.47,324.68h120l74.71-324.68Z"/>
  <path fill="#1434CB" d="M432.29,0,353.71,220.51,336.17,144.9C325.52,100.23,292.18,52.21,253.06,26.8H363.17L476.45,324.68h74.71L680.91,0Z"/>
  <path fill="#1434CB" d="M234.01,0H87.46L86.1,9.43C197.66,36.23,272.38,99.8,309.14,179.97L278.16,26.8C273.08,5.36,255.04,1.67,234.01,0Z"/>
  <path fill="#F9A533" d="M916.79,0H809.39c-25.37,0-44.77,7.39-55.42,33.52L631.77,324.68h74.71l17.21-50.05h111.73l10.41,50.05h65.67L916.79,0Zm-160.99,217.49l46.13-133.58,27.56,133.58H755.8Z"/>
</svg>
