<?xml version="1.0" encoding="UTF-8"?>
<svg width="100px" height="32px" viewBox="0 0 100 32" version="1.1" xmlns="http://www.w3.org/2000/svg">
    <g stroke="none" stroke-width="1" fill="none" fill-rule="evenodd">
        <g fill="#ffffff" fill-rule="nonzero">
            <path d="M45.5,11.4 L42,21.6 L38.4,11.4 L34,11.4 L39.8,26.5 L44.2,26.5 L50,11.4 L45.5,11.4 Z M27.4,26.5 L31.6,26.5 L35.4,11.4 L31.2,11.4 L27.4,26.5 Z M22.9,15.3 C22.9,14.2 22,13.4 20.6,13.4 C19.2,13.4 17.7,14.2 17.7,15.3 C17.7,16.4 19.2,17.2 20.6,17.2 C22,17.2 22.9,16.4 22.9,15.3 Z M24.8,26.5 L29,26.5 L29,11.4 L24.8,11.4 L24.8,26.5 Z M13.2,11.4 L13.2,24.8 C13.2,25.9 12.3,26.7 11,26.7 C9.7,26.7 8.8,25.9 8.8,24.8 L8.8,11.4 L4.6,11.4 L4.6,24.8 C4.6,28.1 7.3,30.4 11,30.4 C14.7,30.4 17.4,28.1 17.4,24.8 L17.4,11.4 L13.2,11.4 Z"/>
        </g>
    </g>
</svg>
